<svg xmlns="http://www.w3.org/2000/svg" xmlns:xlink="http://www.w3.org/1999/xlink" viewBox="0 0 512 512" width="332" height="332" preserveAspectRatio="xMidYMid meet" style="width: 100%; height: 100%; transform: translate3d(0px, 0px, 0px); content-visibility: visible; background-color: transparent;"><defs><clipPath id="__lottie_element_16"><rect width="512" height="512" x="0" y="0"/></clipPath></defs><g clip-path="url(#__lottie_element_16)"><g transform="matrix(1,0,0,1,256,256)" opacity="1" style="display: block;"><g opacity="1" transform="matrix(1,0,0,1,-1,6)"><path fill="rgb(255,255,255)" fill-opacity="1" d=" M277,-278 C277,-278 277,278 277,278 C277,278 -277,278 -277,278 C-277,278 -277,-278 -277,-278 C-277,-278 277,-278 277,-278z"/></g></g><g transform="matrix(1.4355292320251465,0,0,1.4355292320251465,256,257.8599853515625)" opacity="1" style="display: block;"><g opacity="1" transform="matrix(1,0,0,1,0,-3)"><path fill="rgb(111,235,250)" fill-opacity="1" d=" M0,-118 C65.12419891357422,-118 118,-65.12419891357422 118,0 C118,65.12419891357422 65.12419891357422,118 0,118 C-65.12419891357422,118 -118,65.12419891357422 -118,0 C-118,-65.12419891357422 -65.12419891357422,-118 0,-118z"/><path stroke-linecap="butt" stroke-linejoin="miter" fill-opacity="0" stroke-miterlimit="4" stroke="rgb(255,255,255)" stroke-opacity="1" stroke-width="2" d=" M0,-118 C65.12419891357422,-118 118,-65.12419891357422 118,0 C118,65.12419891357422 65.12419891357422,118 0,118 C-65.12419891357422,118 -118,65.12419891357422 -118,0 C-118,-65.12419891357422 -65.12419891357422,-118 0,-118z"/></g></g><g transform="matrix(0.9427022337913513,0,0,0.9427022337913513,256,257.8599853515625)" opacity="1" style="display: block;"><g opacity="1" transform="matrix(1,0,0,1,0,-3)"><path fill="rgb(42,197,217)" fill-opacity="1" d=" M0,-118 C65.12419891357422,-118 118,-65.12419891357422 118,0 C118,65.12419891357422 65.12419891357422,118 0,118 C-65.12419891357422,118 -118,65.12419891357422 -118,0 C-118,-65.12419891357422 -65.12419891357422,-118 0,-118z"/></g></g><g transform="matrix(1,0,0,1,256,256)" opacity="1" style="display: block;"><g opacity="1" transform="matrix(1,0,0,1,0,0)"><path stroke-linecap="round" stroke-linejoin="round" fill-opacity="0" stroke="rgb(255,255,255)" stroke-opacity="1" stroke-width="30" d="M0 0"/></g></g></g></svg>